<svg version="1.1" xmlns="http://www.w3.org/2000/svg" width="381" height="200" style=""><path fill="#229af0" d="M30.105,94.015l5.985,0c7.41,0,12.54,3.135,12.54,9.861c0,4.959-2.337,7.98-6.84,9.405c5.358,1.539,8.151,4.731,8.151,9.12c0,8.379-5.586,11.799-14.82,11.799l-18.126,0l0-4.845l4.275-1.71l0-26.79l-4.275-1.71l0-4.845z M30.105,110.431l3.306,0c4.161,0,6.384-1.767,6.384-5.301c0-2.964-2.109-4.275-4.845-4.275l-4.845,0l0,9.576z M30.105,127.36l4.731,0c3.99,0,6.099-1.824,6.099-4.959c0-4.161-2.394-5.985-7.524-5.985l-3.306,0l0,10.944z M73.85307,102.85c9.234,0,14.364,5.586,14.364,15.39c0,10.26-5.985,16.53-15.219,16.53c-9.291,0-14.535-4.845-14.535-15.675c0-10.26,6.099-16.245,15.39-16.245z M73.56807,109.69c-4.161,0-6.27,2.28-6.27,9.12c0,6.27,1.824,9.12,5.985,9.12c4.104,0,6.099-2.565,6.099-9.405c0-5.814-1.71-8.835-5.814-8.835z M111.55914,102.85c9.234,0,14.364,5.586,14.364,15.39c0,10.26-5.985,16.53-15.219,16.53c-9.291,0-14.535-4.845-14.535-15.675c0-10.26,6.099-16.245,15.39-16.245z M111.27414,109.69c-4.161,0-6.27,2.28-6.27,9.12c0,6.27,1.824,9.12,5.985,9.12c4.104,0,6.099-2.565,6.099-9.405c0-5.814-1.71-8.835-5.814-8.835z M154.11021,126.904l2.052,4.332c-2.793,2.052-5.985,3.534-9.69,3.534c-6.555,0-8.436-4.56-8.436-11.115l0-13.11l-5.301,0l0-5.529l5.301-0.741l0-7.866l8.55-1.539l0,9.405l7.98,0l0,6.27l-7.98,0l0,12.54c0,3.648,0.627,5.13,3.021,5.13c1.539,0,3.762-0.912,4.503-1.311z M167.99028,124.225l0.456,3.705s1.995,0.57,4.788,0.57c3.135,0,4.674-0.969,4.674-2.793c0-4.674-15.219-2.964-15.219-13.11c0-7.125,5.7-9.747,11.742-9.747c5.13,0,10.602,1.71,10.602,1.71l-0.228,8.55l-4.845,0l-0.855-3.42s-1.653-0.57-3.933-0.57c-2.451,0-3.933,1.026-3.933,2.907c0,4.617,15.219,2.622,15.219,12.483c0,6.555-5.301,10.26-13.11,10.26c-5.415,0-10.488-1.254-10.488-1.254l0-9.291l5.13,0z"/><path fill="#000000" d="M220.95635,127.36l1.254-6.27l5.415,0l0,13.11l-28.5,0l0-4.845l4.275-1.71l0-26.79l-4.275-1.71l0-4.845l17.385-0.285l0,5.13l-4.275,1.71l0,26.505l8.721,0z M237.68642,94.015c0-3.249,2.337-5.13,4.902-5.13c2.964,0,4.788,1.539,4.788,5.13c0,3.363-2.451,5.187-4.788,5.187c-3.078,0-4.902-1.824-4.902-5.187z M247.26242,128.215l3.99,1.425l0,4.56l-17.1,0l0-4.56l4.56-1.425l0-18.525l-4.56-1.425l0-4.56l13.11-0.285l0,24.795z M271.00349,103.42l0.399,3.933s5.415-4.389,10.488-4.389c5.529,0,8.664,3.933,8.664,10.146l0,15.105l3.99,1.425l0,4.56l-15.675,0l0-4.56l3.135-1.425l0-13.566c0-2.622-1.482-4.56-3.876-4.56c-3.534,0-6.099,3.249-6.099,3.249l0,14.877l3.135,1.425l0,4.56l-16.245,0l0-4.56l4.56-1.425l0-18.525l-4.56-1.425l0-4.56z M314.18156,114.877l3.762,0l3.876-5.814l-2.508-0.798l0-4.56l14.706-0.285l0,4.845l-3.99,0.741l-5.301,7.467l6.384,11.799l4.332,1.368l0,4.56l-10.545,0l-7.068-13.908l-3.648,0l0,7.923l3.135,1.425l0,4.56l-16.245,0l0-4.56l4.56-1.425l0-32.034l-4.56-1.14l0-4.56l13.11-0.456l0,24.852z M347.27063,124.225l0.456,3.705s1.995,0.57,4.788,0.57c3.135,0,4.674-0.969,4.674-2.793c0-4.674-15.219-2.964-15.219-13.11c0-7.125,5.7-9.747,11.742-9.747c5.13,0,10.602,1.71,10.602,1.71l-0.228,8.55l-4.845,0l-0.855-3.42s-1.653-0.57-3.933-0.57c-2.451,0-3.933,1.026-3.933,2.907c0,4.617,15.219,2.622,15.219,12.483c0,6.555-5.301,10.26-13.11,10.26c-5.415,0-10.488-1.254-10.488-1.254l0-9.291l5.13,0z"/></svg>
