<?xml version="1.0"?>
<svg version="1.1" xmlns="http://www.w3.org/2000/svg" width="147" height="40" style=""><path fill="#" d="M30.12,25.79q2.94,0,2.94,1.11q0,0.24-0.18,0.54q-0.72,1.11-2.61,1.11q-1.23,0-2.52-0.435t-1.95-0.915q-2.79,0.81-4.965,2.49t-3.255,3.81q-0.57,1.14-0.57,2.22q0,1.68,1.395,2.73t4.095,1.05q0.75,0,1.56-0.09q4.77-0.51,7.59-3.06q2.37-2.1,2.37-4.41q0-1.83-1.77-1.83q-2.13,0-4.89,2.28q-0.69,0.57-1.17,1.44t-0.48,1.71t0.84,1.05q0.3,0.12,0.3,0.3q0,0.3-0.6,0.24q-1.44-0.03-1.44-1.89t1.89-3.48q2.58-2.22,5.46-2.22q2.16,0,2.73,1.35q0.24,0.63,0.24,1.26q0,2.79-3.09,5.25q-3.69,3-9.36,3q-3.51,0-5.55-1.305t-2.04-3.405q0-1.23,0.78-2.46q2.76-4.38,9.42-6.51q-0.99-1.14-0.99-2.43t0.63-2.16q1.23-1.68,3.69-2.76q2.94-1.29,5.88-1.29q1.71,0,2.745,0.555t1.035,1.71t-0.855,1.95t-1.785,0.795t-0.93-0.45q0-0.27,0.39-0.27l0.6,0.09q0.6,0,1.095-0.645t0.495-1.335q0-1.02-1.17-1.5q-0.75-0.3-1.41-0.3t-0.93,0.03q-2.58,0.15-5.04,1.8q-2.88,1.89-2.88,4.26q0,0.87,0.6,1.62q1.92-0.6,3.66-0.6z M26.97,26.87q1.29,1.02,2.97,1.02t1.68-0.93q0-0.42-1.5-0.42t-3.15,0.33z M67.2351,18.68q-1.98,0-7.26,4.26q-3.42,2.76-6.18,5.52q-0.24,0.63-0.63,2.07q-1.29,4.68-1.29,6.36q0,0.87,0.51,0.87q1.23,0,4.32-3.06q0.51-0.51,0.51-0.18q0,0.9-2.16,2.49q-2.7,2.01-3.81,2.01q-0.99,0-0.99-1.35t1.38-6.48l0.33-1.32q-6.63,5.82-11.61,8.52q-3.48,1.89-5.49,1.89q-0.24,0-0.48-0.03q-2.34-0.33-2.34-2.88t1.71-5.37q0.63-1.05,1.02-1.05q0.12,0,0.12,0.195t-0.21,0.495q-1.65,2.64-1.65,4.89q0,1.23,0.54,2.1q0.69,0.96,1.83,0.96q2.4,0,7.95-3.99q4.05-2.91,8.55-6.99l0.48-0.42q0.69-3,0.69-5.34t-1.08-3.06q-0.66-0.45-1.65-0.45t-1.92,0.3q-3.42,1.05-5.475,3.825t-2.055,5.085t1.74,2.31q0.96,0,2.37-0.87q0.36-0.27,0.36-0.3q0.09,0.09-0.21,0.39q-1.2,1.2-3.15,1.2q-1.17,0-1.86-0.585t-0.69-1.635q0-0.18,0.03-0.39q0.36-3.99,3.855-6.84t7.035-2.85q0.96,0,1.68,0.21q2.4,0.78,2.4,4.41q0,1.23-0.33,2.97q3.12-2.76,6.585-5.4t4.635-2.97t1.575-0.33t0.555,0.06q0.57,0.21,0.57,0.495t-0.75,0.255l-0.06,0z M68.4402,36.68q-2.16,1.8-3.585,1.8t-1.875-2.07q-0.15-0.84-0.21-2.52q-3.66,3.9-5.49,7.05q-0.09,0.12-0.24,0.12q-0.36,0-0.36-0.33q0-0.09,0.06-0.15q2.79-4.41,6.03-7.74q0.12-4.11,0.15-4.62q-0.69,0.15-2.94,3.48q-1.11,1.68-1.95,2.58t-1.005,1.035t-0.33,0.135t-0.165-0.15t0.96-1.215t2.55-3.48t2.28-3.045t1.29-0.63t0.87,0.165t0.195,0.57t-0.12,0.705t-0.075,0.69q-0.18,1.41-0.21,2.31q1.47-1.41,6.63-5.79q0.06-0.06,0.21-0.06t0.39,0.255t0.24,0.51t-0.24,0.495q-0.96,0.78-3.345,2.505t-3.945,3.165q-0.03,0.63-0.03,1.71t0.27,1.98q0.36,1.17,1.32,1.17q1.71,0,5.28-4.11q0.3-0.3,0.45-0.3t0.15,0.195t-0.24,0.465q-1.86,2.19-2.97,3.12z M79.5453,31.64q0,1.05-2.01,3.51q-2.37,2.91-4.05,2.91l-0.48,0q-0.78,0-1.23-0.81q-0.36-0.57-0.36-1.26q0-1.8,2.625-5.055t4.245-3.255q1.53,0,1.53,1.62q0,0.42-0.15,1.08q0.03,0.09,0.57,0.09t1.65-0.57q-0.03,0.51-2.37,1.47q0.03,0.12,0.03,0.27z M77.5953,30.08q-1.02,0-2.895,2.4t-1.875,3.54t0.72,1.14q1.29,0,3.27-2.34t1.98-3.36q-0.48-0.27-1.2-1.38z M89.3004,28.34l4.32-0.06q0.09,0.06,0.09,0.09q0,0.27-3.735,0.75t-4.035,0.57q-0.57,0.51-2.1,3.045t-1.53,3.705q0,1.11,1.53,1.11q0.72,0,1.89-0.45t1.8-0.84q1.68-1.05,3.6-3.09q0.42-0.42,0.57-0.42q0.09,0,0.09,0.18t-0.45,0.72q-1.56,1.92-3.51,3.09q-2.34,1.44-4.47,1.44q-0.93,0-1.515-0.405t-0.585-1.635t1.08-3.375t1.65-3.195q-0.42,0.09-0.72,0.09q-0.87,0-0.87-0.69q0-0.51,0.72-0.72q0.09,0,0.27-0.03l1.74,0q0.54-0.69,1.23-1.59q0.84-1.08,1.14-1.08t0.75,0.24t0.45,0.57t-1.44,1.95q0.78,0.03,2.04,0.03z M99.0705,26.045q0.405,0.285,0.405,0.675t-0.375,0.675t-0.825,0.285t-0.825-0.33t-0.375-0.75q0-0.84,1.14-0.84q0.45,0,0.855,0.285z M92.7855,38.33q-1.53,0-1.53-1.98q0-1.62,1.77-4.485t2.85-2.895q0.3,0,0.675,0.24t0.375,0.48q-0.15,0.21-0.36,0.465t-0.45,0.555t-0.66,0.855t-0.81,1.065q-2.25,2.91-2.25,4.005t0.75,1.095q0.63,0,1.71-0.69q2.52-1.56,3.99-3.42q0.54-0.69,0.735-0.69t0.195,0.24t-0.69,0.96t-1.095,1.14t-0.555,0.555t-0.555,0.51t-0.615,0.525t-0.6,0.45t-0.69,0.435t-0.69,0.315q-0.63,0.27-1.5,0.27z M102.0906,38.39q-0.33,0-0.6-0.09q-1.92-0.54-1.92-2.16q0-2.1,2.64-4.86t4.74-2.76q0.69,0,1.125,0.375t0.435,1.02t-0.39,1.35t-1.17,0.705t-0.78-0.48q0-0.33,0.405-1.005t0.405-0.72t-0.09-0.045q-0.84,0.09-2.295,1.2t-1.995,1.86l-1.17,1.71q-0.3,0.48-0.435,1.14t-0.135,0.99t0.375,0.75t1.065,0.42q1.5,0,3.72-1.755t3.42-3.345q0.15-0.18,0.36-0.18t0.21,0.12t-0.15,0.3q-1.65,2.19-3.945,3.825t-3.825,1.635z"/><path fill="#" d=""/></svg>
