<svg version="1.1" xmlns="http://www.w3.org/2000/svg" width="400" height="100" style=""><path fill="#2899eb" d="M18.06,90.8l0-5.78l5.1-2.04l0-31.96l-5.1-2.04l0-5.78l15.64-0.34l19.04,0l0,12.92l-6.324,0l-1.7-4.76l-11.016,0l0,11.9l14.076,0l0,7.48l-14.076,0l0,12.58l6.256,2.04l0,5.78l-21.896,0z M67.87068,78.9l0.544,4.42s2.38,0.68,5.712,0.68c3.74,0,5.576-1.156,5.576-3.332c0-5.576-18.156-3.536-18.156-15.64c0-8.5,6.8-11.628,14.008-11.628c6.12,0,12.648,2.04,12.648,2.04l-0.272,10.2l-5.78,0l-1.02-4.08s-1.972-0.68-4.692-0.68c-2.924,0-4.692,1.224-4.692,3.468c0,5.508,18.156,3.128,18.156,14.892c0,7.82-6.324,12.24-15.64,12.24c-6.46,0-12.512-1.496-12.512-1.496l0-11.084l6.12,0z"/><path fill="#" d="M117.10536,82.98l0-31.96l-6.46,0l-1.7,6.46l-6.256,0l0-14.62l39.44,0l0,14.62l-6.324,0l-1.7-6.46l-6.46,0l0,31.96l6.46,2.04l0,5.78l-23.46,0l0-5.78z M164.53604,38.1l0,19.924c1.972-1.632,6.392-4.624,11.424-4.624c6.936,0,10.676,4.624,10.676,12.24l0,18.02l4.76,1.7l0,5.44l-18.496,0l0-5.44l3.536-1.632l0-16.456c0-3.4-1.36-5.44-4.488-5.44c-3.808,0-7.412,3.604-7.412,3.604l0,18.224l3.604,1.7l0,5.44l-19.244,0l0-5.44l5.44-1.7l0-38.216l-5.44-1.36l0-5.44z M233.38672,74.684l-22.576,0c0.408,5.44,3.536,8.636,8.228,8.636c5.644,0,11.424-3.196,11.424-3.196l2.924,5.644s-6.8,5.712-15.504,5.712c-11.696,0-17.68-6.8-17.68-18.36c0-11.9,6.732-19.72,18.156-19.72c10.132,0,15.436,6.256,15.436,15.98c0,2.584-0.408,5.1-0.408,5.304z M210.94672,68.36l12.308,0c0-3.876-1.632-6.8-5.576-6.8c-3.808,0-6.188,2.788-6.732,6.8z M306.7254,85.36l0,5.44l-18.428,0l0-5.44l3.604-1.7l0-16.184c0-3.74-1.088-5.576-3.944-5.576c-4.42,0-7.548,3.536-7.548,3.536l0,18.224l3.536,1.7l0,5.44l-17.272,0l0-5.44l3.536-1.7l0-16.184c0-3.74-0.952-5.576-3.876-5.576c-4.42,0-7.616,3.536-7.616,3.536l0,18.224l3.604,1.7l0,5.44l-19.04,0l0-5.44l5.236-1.7l0-22.1l-5.168-1.7l0-5.44l14.212-0.34l0.476,4.828s5.916-5.508,11.9-5.508c4.828,0,7.82,2.244,9.384,5.848c1.156-1.156,6.256-5.848,12.308-5.848c7.14,0,10.472,4.624,10.472,12.24l0,18.02z M348.71608,74.684l-22.576,0c0.408,5.44,3.536,8.636,8.228,8.636c5.644,0,11.424-3.196,11.424-3.196l2.924,5.644s-6.8,5.712-15.504,5.712c-11.696,0-17.68-6.8-17.68-18.36c0-11.9,6.732-19.72,18.156-19.72c10.132,0,15.436,6.256,15.436,15.98c0,2.584-0.408,5.1-0.408,5.304z M326.27608,68.36l12.308,0c0-3.876-1.632-6.8-5.576-6.8c-3.808,0-6.188,2.788-6.732,6.8z M364.93476,78.9l0.544,4.42s2.38,0.68,5.712,0.68c3.74,0,5.576-1.156,5.576-3.332c0-5.576-18.156-3.536-18.156-15.64c0-8.5,6.8-11.628,14.008-11.628c6.12,0,12.648,2.04,12.648,2.04l-0.272,10.2l-5.78,0l-1.02-4.08s-1.972-0.68-4.692-0.68c-2.924,0-4.692,1.224-4.692,3.468c0,5.508,18.156,3.128,18.156,14.892c0,7.82-6.324,12.24-15.64,12.24c-6.46,0-12.512-1.496-12.512-1.496l0-11.084l6.12,0z"/></svg>
