<svg version="1.1" xmlns="http://www.w3.org/2000/svg" width="393" height="200" style=""><path fill="#199efc" d="M16.225,121l0-2.975l2.625-1.05l0-16.52l-2.625-1.05l0-2.905l10.675-0.175l0,3.08l-2.625,1.05l0,6.02l2.38,0l5.845-9.975l6.475-0.175l0,3.08l-3.325,0.98l-4.585,7.63l6.51,8.96l2.625,1.05l0,2.975l-10.675,0l0-2.975l2.1-1.05l-4.795-6.65l-2.555,0l0,6.65l2.625,1.05l0,2.975l-10.675,0z M54.5157,121l0-2.975l2.625-1.05l0-16.52l-2.625-1.05l0-2.905l10.675-0.175l0,3.08l-2.625,1.05l0,6.02l2.38,0l5.845-9.975l6.475-0.175l0,3.08l-3.325,0.98l-4.585,7.63l6.51,8.96l2.625,1.05l0,2.975l-10.675,0l0-2.975l2.1-1.05l-4.795-6.65l-2.555,0l0,6.65l2.625,1.05l0,2.975l-10.675,0z"/><path fill="#121212" d="M105.8214,100.525l0,11.025c0,4.025,1.155,5.6,4.585,5.6c3.71,0,4.515-1.995,4.515-6.125l0-10.5l-2.73-1.05l0-2.975l10.78-0.175l0,3.15l-2.625,1.05l0,10.5c0,6.755-2.59,10.395-10.115,10.395c-7.035,0-9.835-3.115-9.835-9.87l0-11.025l-2.59-1.05l0-2.975l10.745-0.175l0,3.15z M127.85425,121l0-2.975l2.625-1.05l0-16.45l-2.625-1.05l0-2.975l8.05-0.175l3.325,0c5.355,0,8.505,2.8,8.505,7.35c0,5.88-3.605,8.75-9.975,8.75l-1.855,0l0,4.55l2.625,1.05l0,2.975l-10.675,0z M135.90425,108.33l1.855,0c2.905,0,4.55-1.365,4.55-3.955c0-2.275-1.225-3.85-3.605-3.85l-2.8,0l0,7.805z M169.3121,103.85l-0.875-3.01s-1.645-0.56-3.955-0.56c-3.745,0-5.845,2.73-5.845,8.575c0,5.67,2.205,8.12,5.95,8.12c1.82,0,3.85-0.63,3.85-0.63l0-4.41l-2.625-0.805l0-2.87l10.08-0.175l0,3.045l-2.38,0.805l0,7.14s-3.605,2.345-9.52,2.345c-7.105,0-11.2-4.27-11.2-12.39c0-8.225,4.62-13.125,11.795-13.125c4.235,0,8.155,1.645,8.155,1.645l-0.175,6.3l-3.255,0z M180.77495,121l0-2.975l2.625-1.05l0-16.45l-2.625-1.05l0-2.975l8.05-0.175l2.66,0c5.74,0,9.1,2.38,9.1,7.14c0,3.29-1.575,5.425-3.955,6.615c0.385,0.455,0.91,1.12,1.47,2.275l2.345,4.795l2.38,0.875l0,2.975l-6.475,0l-2.94-6.475c-1.19-2.66-1.505-3.22-3.36-3.22l-1.225,0l0,5.67l2.52,1.05l0,2.975l-10.57,0z M188.82495,107.63l1.995,0c2.765,0,4.375-1.33,4.375-3.675c0-1.995-1.33-3.43-3.5-3.43l-2.87,0l0,7.105z M231.6128,118.025l0,2.975l-11.13,0l0-2.975l2.625-0.945l-0.84-2.555l-7.77,0l-0.875,2.52l2.73,0.98l0,2.975l-10.57,0l0-2.975l2.555-0.98l7.7-20.615l5.6-0.105l7.525,20.72z M221.1128,110.78l-2.625-8.295l-2.765,8.295l5.39,0z M238.24565,116.975l0-16.45l-2.625-1.05l0-2.975l8.05-0.175l3.325,0c7,0,11.13,4.13,11.13,12.005s-4.55,12.67-11.655,12.67l-10.85,0l0-2.975z M243.67065,116.8l2.905,0c3.395,0,5.67-1.995,5.67-8.295c0-5.88-1.995-7.98-5.425-7.98l-3.15,0l0,16.275z M279.0035,106.3l0,3.85l-7.07,0l0,6.65l6.265,0l0.805-2.87l3.15,0l0,7.07l-18.27,0l0-2.975l2.625-1.05l0-16.45l-2.625-1.05l0-2.975l8.05-0.175l9.8,0l0,6.755l-3.15,0l-0.875-2.555l-5.775,0l0,5.775l7.07,0z M287.73635,121l0-2.975l2.625-1.05l0-16.45l-2.625-1.05l0-2.975l8.05-0.175l2.66,0c5.74,0,9.1,2.38,9.1,7.14c0,3.29-1.575,5.425-3.955,6.615c0.385,0.455,0.91,1.12,1.47,2.275l2.345,4.795l2.38,0.875l0,2.975l-6.475,0l-2.94-6.475c-1.19-2.66-1.505-3.22-3.36-3.22l-1.225,0l0,5.67l2.52,1.05l0,2.975l-10.57,0z M295.78635,107.63l1.995,0c2.765,0,4.375-1.33,4.375-3.675c0-1.995-1.33-3.43-3.5-3.43l-2.87,0l0,7.105z"/></svg>
